<svg width="18" height="18" viewBox="0 0 18 18" fill="none" xmlns="http://www.w3.org/2000/svg">
<path d="M14.1328 5.83594C13.9387 5.83594 13.7812 5.99344 13.7812 6.1875C13.7812 6.38156 13.9387 6.53906 14.1328 6.53906C14.3269 6.53906 14.4844 6.38156 14.4844 6.1875C14.4844 5.99344 14.3269 5.83594 14.1328 5.83594Z" fill="#999999"/>
<path d="M16.9453 4.42969H13.0845L11.9698 2.20032C11.7899 1.84064 11.4284 1.61719 11.0264 1.61719H6.97359C6.57151 1.61719 6.21004 1.84064 6.03021 2.20036L4.91555 4.42969H4.21875V4.07812C4.21875 3.49657 3.74562 3.02344 3.16406 3.02344H2.46094C1.87938 3.02344 1.40625 3.49657 1.40625 4.07812V4.42969H1.05469C0.473133 4.42969 0 4.90282 0 5.48438C0 6.43975 0 14.9565 0 15.3281C0 15.9097 0.473133 16.3828 1.05469 16.3828H16.9453C17.5269 16.3828 18 15.9097 18 15.3281C18 14.3728 18 5.85601 18 5.48438C18 4.90282 17.5269 4.42969 16.9453 4.42969ZM6.65912 2.5148C6.7191 2.39484 6.83958 2.32031 6.97359 2.32031H11.0264C11.1604 2.32031 11.2809 2.39484 11.3409 2.5148L12.2984 4.42969H5.70164L6.65912 2.5148ZM2.10938 4.07812C2.10938 3.88427 2.26709 3.72656 2.46094 3.72656H3.16406C3.35791 3.72656 3.51562 3.88427 3.51562 4.07812V4.42969H2.10938V4.07812ZM0.703125 7.9418H5.14867C4.68144 8.67168 4.42969 9.52706 4.42969 10.4062C4.42969 11.2855 4.68148 12.1374 5.14863 12.8672H0.703125V7.9418ZM9 6.53906C11.1141 6.53906 12.8672 8.25184 12.8672 10.4062C12.8672 12.5582 11.1165 14.2734 9 14.2734C6.88159 14.2734 5.13281 12.5563 5.13281 10.4062C5.13281 8.25451 6.88324 6.53906 9 6.53906ZM17.2969 15.3281C17.2969 15.522 17.1392 15.6797 16.9453 15.6797H1.05469C0.860836 15.6797 0.703125 15.522 0.703125 15.3281V13.5703H5.70326C6.5623 14.4658 7.75459 14.9766 9 14.9766C10.2456 14.9766 11.438 14.4657 12.2968 13.5703H17.2969V15.3281ZM17.2969 12.8672H12.8513C13.3186 12.1373 13.5703 11.2855 13.5703 10.4062C13.5703 9.52703 13.3186 8.67519 12.8513 7.94531H17.2969V12.8672ZM17.2969 7.24219H12.2967C11.4377 6.34669 10.2454 5.83594 9 5.83594C7.75441 5.83594 6.56202 6.34683 5.70322 7.24219H0.703125V5.48438C0.703125 5.29052 0.860836 5.13281 1.05469 5.13281C1.37394 5.13281 16.4511 5.13281 16.9453 5.13281C17.1392 5.13281 17.2969 5.29052 17.2969 5.48438V7.24219Z" fill="#999999"/>
<path d="M10.0547 3.02344H7.94531C7.75114 3.02344 7.59375 3.18083 7.59375 3.375C7.59375 3.56917 7.75114 3.72656 7.94531 3.72656H10.0547C10.2488 3.72656 10.4062 3.56917 10.4062 3.375C10.4062 3.18083 10.2488 3.02344 10.0547 3.02344Z" fill="#999999"/>
<path d="M9 7.24219C7.25534 7.24219 5.83594 8.66159 5.83594 10.4062C5.83594 12.1509 7.25534 13.5703 9 13.5703C10.7447 13.5703 12.1641 12.1509 12.1641 10.4062C12.1641 8.66159 10.7447 7.24219 9 7.24219ZM9 12.8672C7.64304 12.8672 6.53906 11.7632 6.53906 10.4062C6.53906 9.04929 7.64304 7.94531 9 7.94531C10.357 7.94531 11.4609 9.04929 11.4609 10.4062C11.4609 11.7632 10.357 12.8672 9 12.8672Z" fill="#999999"/>
<path d="M9 8.64844C8.03074 8.64844 7.24219 9.43699 7.24219 10.4062C7.24219 10.6004 7.39958 10.7578 7.59375 10.7578C7.78792 10.7578 7.94531 10.6004 7.94531 10.4062C7.94531 9.8247 8.41845 9.35156 9 9.35156C9.19413 9.35156 9.35156 9.19417 9.35156 9C9.35156 8.80583 9.19413 8.64844 9 8.64844Z" fill="#999999"/>
<path d="M16.2422 5.83594H15.5391C15.3449 5.83594 15.1875 5.99333 15.1875 6.1875C15.1875 6.38167 15.3449 6.53906 15.5391 6.53906H16.2422C16.4363 6.53906 16.5938 6.38167 16.5938 6.1875C16.5938 5.99333 16.4363 5.83594 16.2422 5.83594Z" fill="#999999"/>
</svg>
