<svg width="16" height="11" viewBox="0 0 16 11" fill="none" xmlns="http://www.w3.org/2000/svg">
<path d="M7.875 2.6875C8.73177 2.6875 9.45182 2.98828 10.0352 3.58984C10.6367 4.17318 10.9375 4.89323 10.9375 5.75C10.9375 6.58854 10.6367 7.30859 10.0352 7.91016C9.45182 8.49349 8.73177 8.78516 7.875 8.78516C7.03646 8.78516 6.31641 8.49349 5.71484 7.91016C5.13151 7.30859 4.83984 6.58854 4.83984 5.75C4.83984 5.45833 4.8763 5.17578 4.94922 4.90234C5.1862 5.02995 5.43229 5.09375 5.6875 5.09375C6.10677 5.09375 6.46224 4.94792 6.75391 4.65625C7.0638 4.34635 7.21875 3.98177 7.21875 3.5625C7.21875 3.30729 7.15495 3.0612 7.02734 2.82422C7.30078 2.73307 7.58333 2.6875 7.875 2.6875ZM15.668 5.33984C15.7227 5.46745 15.75 5.60417 15.75 5.75C15.75 5.89583 15.7227 6.03255 15.668 6.16016C14.9023 7.61849 13.8268 8.79427 12.4414 9.6875C11.056 10.5625 9.53385 11 7.875 11C6.78125 11 5.72396 10.7995 4.70312 10.3984C3.70052 9.97917 2.80729 9.41406 2.02344 8.70312C1.23958 7.97396 0.592448 7.1263 0.0820312 6.16016C0.0273438 6.03255 0 5.89583 0 5.75C0 5.60417 0.0273438 5.46745 0.0820312 5.33984C0.847656 3.88151 1.92318 2.71484 3.30859 1.83984C4.69401 0.946615 6.21615 0.5 7.875 0.5C9.53385 0.5 11.056 0.946615 12.4414 1.83984C13.8268 2.71484 14.9023 3.88151 15.668 5.33984ZM7.875 9.6875C9.22396 9.6875 10.4727 9.34115 11.6211 8.64844C12.7878 7.9375 13.7083 6.97135 14.3828 5.75C13.7083 4.52865 12.7878 3.57161 11.6211 2.87891C10.4727 2.16797 9.22396 1.8125 7.875 1.8125C6.52604 1.8125 5.26823 2.16797 4.10156 2.87891C2.95312 3.57161 2.04167 4.52865 1.36719 5.75C1.80469 6.55208 2.36068 7.25391 3.03516 7.85547C3.70964 8.4388 4.45703 8.89453 5.27734 9.22266C6.11589 9.53255 6.98177 9.6875 7.875 9.6875Z" fill="#666666"/>
</svg>
