<svg width="66" height="66" viewBox="0 0 66 66" fill="none" xmlns="http://www.w3.org/2000/svg">
<g clip-path="url(#clip0)">
<path d="M44.9339 41.8H21.064C20.0688 41.8004 19.1804 42.4239 18.8419 43.3596C18.5032 44.2953 18.787 45.343 19.5515 45.98L23.1177 48.95C23.5427 49.3041 24.0781 49.4987 24.6314 49.5H41.3668C41.92 49.4987 42.4554 49.3041 42.8804 48.95L46.4466 45.98C47.2112 45.343 47.4948 44.2953 47.1563 43.3596C46.8175 42.4238 45.9291 41.8003 44.9339 41.8ZM45.0439 44.2904L41.4788 47.2604C41.4476 47.2856 41.4088 47.2992 41.3688 47.299H24.6334C24.5934 47.2996 24.5543 47.286 24.5234 47.2604L20.9572 44.2904C20.9031 44.2459 20.8833 44.1719 20.9079 44.1063C20.9324 44.0407 20.9961 43.9979 21.0661 44H44.9361C45.0064 43.9975 45.0704 44.0399 45.0953 44.1057C45.1202 44.1715 45.1003 44.2457 45.0461 44.2904H45.0439Z" fill="#C49C6C"/>
<path d="M52.8319 42.35L49.2546 45.32C48.4875 45.956 48.2019 47.0049 48.5409 47.9419C48.88 48.879 49.7707 49.5024 50.7672 49.5001H59.4C60.615 49.5001 61.6 48.5151 61.6 47.3001V44.0001C61.6 42.785 60.615 41.8 59.4 41.8H54.3455C53.7923 41.8016 53.257 41.996 52.8319 42.35ZM59.4 44V47.2999H50.7672C50.6953 47.307 50.6292 47.2601 50.612 47.19C50.5827 47.1264 50.6037 47.051 50.6615 47.0117L54.2398 44.0351C54.2707 44.0096 54.3098 43.9963 54.3498 43.9978L59.4 44Z" fill="#C49C6C"/>
<path d="M13.1681 42.35C12.7444 41.9973 12.2112 41.8029 11.6599 41.8H6.59993C5.38488 41.8 4.3999 42.785 4.3999 44.0001V47.3001C4.3999 48.5151 5.38488 49.5001 6.59993 49.5001H15.2305C16.2272 49.5028 17.1183 48.8796 17.4576 47.9425C17.7969 47.0054 17.5114 45.9561 16.7441 45.3201L13.1681 42.35ZM15.3879 47.19C15.3707 47.2601 15.3046 47.307 15.2328 47.3H6.59993V44H11.6599C11.7 43.9985 11.7391 44.0118 11.7699 44.0373L15.3494 47.015C15.402 47.0569 15.4181 47.13 15.3879 47.19Z" fill="#C49C6C"/>
<path fill-rule="evenodd" clip-rule="evenodd" d="M14.3 52.8H6.59996C5.99249 52.8 5.5 53.2925 5.5 53.8999C5.5 54.5074 5.99249 54.9999 6.59996 54.9999H14.3C14.9075 54.9999 15.4 54.5074 15.4 53.8999C15.4 53.2925 14.9075 52.8 14.3 52.8Z" fill="#C49C6C"/>
<path fill-rule="evenodd" clip-rule="evenodd" d="M59.3998 52.8H51.6998C51.0923 52.8 50.5999 53.2925 50.5999 53.8999C50.5999 54.5074 51.0923 54.9999 51.6998 54.9999H59.3998C60.0073 54.9999 60.4998 54.5074 60.4998 53.8999C60.4998 53.2925 60.0073 52.8 59.3998 52.8Z" fill="#C49C6C"/>
<path fill-rule="evenodd" clip-rule="evenodd" d="M42.9 52.8H23.1C22.4925 52.8 22 53.2925 22 53.8999C22 54.5074 22.4925 54.9999 23.1 54.9999H42.9C43.5074 54.9999 43.9999 54.5074 43.9999 53.8999C43.9999 53.2925 43.5074 52.8 42.9 52.8Z" fill="#C49C6C"/>
<path d="M66 31.9C66 30.0775 64.5225 28.6 62.7 28.6H60.5C59.5415 28.6031 58.6324 29.0256 58.0118 29.7561L55.946 23.561C55.1995 21.3137 53.0967 19.7979 50.7287 19.8001H15.2712C12.9032 19.7979 10.8004 21.3137 10.0539 23.561L7.98814 29.7561C7.36757 29.0257 6.45848 28.6032 5.49991 28.6H3.3C1.47749 28.6 1.32649e-05 30.0775 1.32649e-05 31.9C1.32649e-05 33.7225 1.47749 35.2 3.3 35.2H5.04456L0.966916 39.2777C0.345699 39.8949 -0.0024768 40.7352 1.32649e-05 41.6108V56.0999C0.00575124 57.4934 0.886259 58.733 2.20004 59.1976V62.7C2.20004 64.5225 3.67751 66 5.50002 66H13.2001C15.0226 66 16.5 64.5225 16.5 62.7V59.4H49.5V62.7C49.5 64.5225 50.9775 66 52.8 66H60.5C62.3225 66 63.8 64.5225 63.8 62.7V59.1976C65.1138 58.7331 65.9942 57.4934 66 56.0999V41.6108C66.0025 40.7352 65.6543 39.8949 65.0331 39.2777L60.9555 35.2H62.7C64.5225 35.2 66 33.7225 66 31.9ZM12.1407 24.2572C12.5896 22.9094 13.8507 22.0001 15.2712 22H50.7287C52.1493 22.0001 53.4104 22.9094 53.8592 24.2572L56.7731 33.0001H9.22678L12.1407 24.2572ZM3.3 33.0001C2.69253 33.0001 2.20004 32.5076 2.20004 31.9001C2.20004 31.2926 2.69253 30.8001 3.3 30.8001H5.50002C6.10749 30.8001 6.59998 31.2926 6.59998 31.9001V33.0001H3.3ZM14.3 62.7C14.3 63.3075 13.8075 63.8 13.2001 63.8H5.50002C4.89256 63.8 4.40006 63.3075 4.40006 62.7V59.4H14.3V62.7ZM61.6 62.7C61.6 63.3075 61.1075 63.8 60.5 63.8H52.8C52.1925 63.8 51.7 63.3075 51.7 62.7V59.4H61.6V62.7ZM63.4777 40.8331C63.6831 41.04 63.7988 41.3194 63.8 41.6108V56.0999C63.8 56.7074 63.3075 57.1999 62.7 57.1999H3.3C2.69253 57.1999 2.20004 56.7074 2.20004 56.0999V41.6108C2.20123 41.3192 2.31696 41.0399 2.52234 40.8331L8.15541 35.2001H57.8446L63.4777 40.8331ZM59.4001 33.0001V31.9001C59.4001 31.2926 59.8925 30.8001 60.5 30.8001H62.7C63.3075 30.8001 63.8 31.2926 63.8 31.9001C63.8 32.5076 63.3075 33.0001 62.7 33.0001H59.4001Z" fill="#C49C6C"/>
<path d="M14.112 17.6H24.2001C25.5936 17.5943 26.8332 16.7137 27.2978 15.4H28.7828C29.6616 15.3977 30.504 15.0487 31.1269 14.4286L32.0322 13.5233C32.2391 13.3158 32.5202 13.1994 32.8133 13.1999H36.9448C37.5286 13.2016 38.0887 12.9694 38.5002 12.5553L39.6002 11.4554L40.7002 12.5553C41.1117 12.9693 41.6718 13.2016 42.2556 13.1999H44.6447C45.2285 13.2016 45.7887 12.9694 46.2002 12.5553L47.3001 11.4554L48.4001 12.5553C48.8116 12.9693 49.3717 13.2016 49.9555 13.1999H52.0631C52.5388 13.1982 53.0015 13.044 53.383 12.76L56.32 10.5599C56.874 10.1444 57.2 9.49235 57.2 8.79989C57.2 8.10744 56.874 7.45537 56.32 7.03985L53.383 4.83983C53.0017 4.5552 52.5389 4.40093 52.0631 4.39984H32.813C32.5169 4.39822 32.2334 4.27967 32.0243 4.06986L31.119 3.16456C30.5012 2.54529 29.6618 2.19809 28.787 2.19982H27.2977C26.8332 0.886256 25.5935 0.00585627 24.2 1.00391e-05H14.1119C13.2359 -0.00215523 12.3955 0.34602 11.7777 0.966912L9.76696 2.97769C9.14575 3.5949 8.79757 4.43514 8.80006 5.31077V12.2891C8.79757 13.1648 9.14575 14.005 9.76696 14.6222L11.7777 16.633C12.3953 17.2545 13.2359 17.6028 14.112 17.6ZM27.5001 4.40006H28.7872C29.0802 4.39952 29.3613 4.5159 29.5682 4.72344L30.4735 5.62874C31.0963 6.24866 31.9387 6.5977 32.8176 6.60009H52.0676L55.0003 8.80011L52.0633 11.0001H49.9557L48.8558 9.90018C47.9967 9.04132 46.6041 9.04132 45.7449 9.90018L44.645 11.0001H42.2558L41.1558 9.90018C40.2968 9.04132 38.9042 9.04132 38.045 9.90018L36.945 11.0001H32.8135C31.9367 10.9981 31.0954 11.3466 30.477 11.9681L29.5707 12.8734C29.3621 13.0833 29.0789 13.202 28.783 13.2034H27.5001V4.40006ZM11.0001 12.2892V5.31077C11.0013 5.01933 11.117 4.7399 11.3224 4.53312L13.3332 2.52234C13.5396 2.31577 13.8199 2.19982 14.112 2.20004H24.2001C24.8076 2.20004 25.3001 2.69253 25.3001 3.29999V14.3C25.3001 14.9075 24.8076 15.4 24.2001 15.4H14.112C13.8199 15.4002 13.5397 15.2842 13.3332 15.0777L11.3224 13.0669C11.117 12.8601 11.0012 12.5807 11.0001 12.2892Z" fill="#C49C6C"/>
<path d="M15.4 13.2001H17.6C18.815 13.2001 19.8 12.2151 19.8 11V6.59999C19.8 5.38495 18.815 4.39996 17.6 4.39996H15.4C14.1849 4.39996 13.2 5.38495 13.2 6.59999V11C13.2001 12.2151 14.185 13.2001 15.4 13.2001ZM15.4 6.59999H17.6V11H15.4V6.59999Z" fill="#C49C6C"/>
</g>
<defs>
<clipPath id="clip0">
<rect width="66" height="66" fill="white"/>
</clipPath>
</defs>
</svg>
