<svg width="18" height="18" viewBox="0 0 18 18" fill="none" xmlns="http://www.w3.org/2000/svg">
<g clip-path="url(#clip0)">
<path d="M16.3318 3.33148L11.8539 5.91684C11.8191 5.93689 11.7794 5.94663 11.7394 5.94492C11.6993 5.94321 11.6606 5.93013 11.6277 5.90719L4.496 0.933935L4.62611 1.70564L9.7532 6.79341C9.77526 6.8153 9.79222 6.84181 9.80285 6.87102C9.81347 6.90024 9.81751 6.93144 9.81467 6.96239C9.81184 6.99335 9.80219 7.0233 9.78643 7.05009C9.77066 7.07689 9.74918 7.09986 9.7235 7.11738L4.24545 10.8542C4.21378 10.8759 4.17679 10.8885 4.13849 10.8906C4.10019 10.8928 4.06202 10.8845 4.02811 10.8665L0.910364 9.22074L0.559128 9.42249L3.60993 11.6851C3.63299 11.7022 3.65232 11.7239 3.66673 11.7487C3.68114 11.7735 3.69033 11.8011 3.69374 11.8296L4.14782 15.637L4.47013 15.4376L4.63696 11.9241C4.63874 11.8866 4.65051 11.8502 4.67105 11.8187C4.69159 11.7873 4.72015 11.7619 4.7538 11.7452L10.7561 8.76218C10.7841 8.74827 10.8149 8.74075 10.8462 8.74018C10.8774 8.7396 10.9084 8.74599 10.9369 8.75888C10.9654 8.77176 10.9907 8.79082 11.0109 8.81468C11.0311 8.83853 11.0458 8.86659 11.0539 8.89681L12.9131 15.88L13.5273 16.3746L12.7695 7.74732C12.766 7.70727 12.774 7.66706 12.7926 7.63142C12.8111 7.59577 12.8395 7.56618 12.8744 7.54612L17.3071 4.98682C17.996 4.58907 18.357 3.87103 18.0959 3.41839C17.8364 2.96905 17.0285 2.92925 16.3318 3.33148Z" fill="#999999"/>
</g>
<defs>
<clipPath id="clip0">
<rect width="18" height="18" fill="white"/>
</clipPath>
</defs>
</svg>
