<svg width="66" height="66" viewBox="0 0 66 66" fill="none" xmlns="http://www.w3.org/2000/svg">
<path d="M27.8438 41.25H29.9062V43.3125H27.8438V41.25Z" fill="#C49C6C"/>
<path d="M31.9688 41.25H34.0312V43.3125H31.9688V41.25Z" fill="#C49C6C"/>
<path d="M36.0938 41.25H38.1562V43.3125H36.0938V41.25Z" fill="#C49C6C"/>
<path d="M27.8438 45.375H29.9062V47.4375H27.8438V45.375Z" fill="#C49C6C"/>
<path d="M31.9688 45.375H34.0312V47.4375H31.9688V45.375Z" fill="#C49C6C"/>
<path d="M36.0938 45.375H38.1562V47.4375H36.0938V45.375Z" fill="#C49C6C"/>
<path d="M27.8438 49.5H29.9062V51.5625H27.8438V49.5Z" fill="#C49C6C"/>
<path d="M31.9688 49.5H34.0312V51.5625H31.9688V49.5Z" fill="#C49C6C"/>
<path d="M36.0938 49.5H38.1562V51.5625H36.0938V49.5Z" fill="#C49C6C"/>
<path d="M27.8438 33H29.9062V35.0625H27.8438V33Z" fill="#C49C6C"/>
<path d="M31.9688 33H34.0312V35.0625H31.9688V33Z" fill="#C49C6C"/>
<path d="M36.0938 33H38.1562V35.0625H36.0938V33Z" fill="#C49C6C"/>
<path d="M27.8438 37.125H29.9062V39.1875H27.8438V37.125Z" fill="#C49C6C"/>
<path d="M31.9688 37.125H34.0312V39.1875H31.9688V37.125Z" fill="#C49C6C"/>
<path d="M36.0938 37.125H38.1562V39.1875H36.0938V37.125Z" fill="#C49C6C"/>
<path d="M22.9284 10.6271L27.2164 14.8067L26.2041 20.7084C26.1715 20.8981 26.1927 21.0931 26.2652 21.2714C26.3377 21.4496 26.4586 21.604 26.6143 21.7172C26.77 21.8303 26.9542 21.8976 27.1462 21.9114C27.3381 21.9253 27.5301 21.8852 27.7004 21.7956L33 19.0092L38.3001 21.7956C38.4704 21.8852 38.6624 21.9253 38.8544 21.9114C39.0463 21.8976 39.2306 21.8303 39.3862 21.7172C39.5419 21.604 39.6629 21.4496 39.7354 21.2714C39.8078 21.0931 39.829 20.8981 39.7965 20.7084L38.7842 14.8067L43.0726 10.6271C43.2104 10.4927 43.3079 10.3226 43.354 10.1357C43.4002 9.94889 43.3931 9.75289 43.3336 9.56987C43.2741 9.38685 43.1647 9.22412 43.0175 9.10009C42.8704 8.97605 42.6915 8.89566 42.501 8.86801L36.5754 8.00704L33.9253 2.63732C33.8401 2.46476 33.7084 2.31947 33.545 2.21787C33.3815 2.11628 33.193 2.06244 33.0005 2.06244C32.8081 2.06244 32.6195 2.11628 32.4561 2.21787C32.2927 2.31947 32.1609 2.46476 32.0758 2.63732L29.4257 8.00704L23.4996 8.86801C23.3092 8.89566 23.1303 8.97605 22.9831 9.10009C22.836 9.22412 22.7265 9.38685 22.6671 9.56987C22.6076 9.75289 22.6005 9.94889 22.6466 10.1357C22.6928 10.3226 22.7902 10.4927 22.9281 10.6271H22.9284ZM30.2588 9.96964C30.4243 9.94558 30.5814 9.88165 30.7167 9.78335C30.8519 9.68506 30.9612 9.55536 31.0352 9.40542L33 5.42402L34.9653 9.40593C35.0393 9.55587 35.1486 9.68558 35.2839 9.78387C35.4191 9.88216 35.5763 9.94609 35.7417 9.97015L40.1361 10.6086L36.9574 13.7083C36.8377 13.825 36.7482 13.9691 36.6965 14.1281C36.6449 14.2871 36.6327 14.4563 36.6609 14.6211L37.4116 18.9977L33.4811 16.9313C33.3331 16.8535 33.1684 16.8129 33.0012 16.8129C32.834 16.8129 32.6693 16.8535 32.5213 16.9313L28.5908 18.9977L29.3414 14.6211C29.3697 14.4563 29.3575 14.2871 29.3058 14.1281C29.2542 13.9691 29.1646 13.825 29.0449 13.7083L25.8644 10.609L30.2588 9.96964Z" fill="#C49C6C"/>
<path d="M42.3317 18.8322C42.2723 19.0152 42.2652 19.2112 42.3113 19.3979C42.3574 19.5847 42.4548 19.7549 42.5926 19.8892L45.448 22.6726L44.774 26.6028C44.7414 26.7925 44.7626 26.9875 44.8351 27.1657C44.9076 27.344 45.0285 27.4984 45.1842 27.6115C45.3399 27.7246 45.5241 27.7919 45.716 27.8058C45.908 27.8197 46.1 27.7796 46.2703 27.69L49.7999 25.8344L53.3295 27.69C53.4998 27.7795 53.6918 27.8196 53.8837 27.8057C54.0756 27.7918 54.2598 27.7245 54.4155 27.6114C54.5712 27.4983 54.6921 27.3439 54.7646 27.1657C54.8371 26.9874 54.8582 26.7924 54.8257 26.6028L54.1515 22.6726L57.007 19.8892C57.1449 19.7549 57.2423 19.5847 57.2885 19.3979C57.3346 19.2111 57.3275 19.0151 57.268 18.832C57.2086 18.649 57.0991 18.4863 56.9519 18.3623C56.8048 18.2382 56.6259 18.1578 56.4355 18.1302L52.4894 17.5571L50.7245 13.9811C50.6394 13.8085 50.5076 13.6633 50.3442 13.5617C50.1808 13.4601 49.9922 13.4063 49.7998 13.4063C49.6074 13.4063 49.4189 13.4601 49.2554 13.5617C49.092 13.6633 48.9603 13.8085 48.8751 13.9811L47.1103 17.5571L43.1642 18.1304C42.9738 18.1581 42.7949 18.2385 42.6478 18.3625C42.5007 18.4865 42.3912 18.6492 42.3317 18.8322ZM47.9434 19.52C48.1089 19.496 48.266 19.4321 48.4013 19.3338C48.5366 19.2356 48.6459 19.1059 48.7199 18.9559L49.7999 16.7676L50.8799 18.9559C50.9539 19.1059 51.0632 19.2355 51.1985 19.3338C51.3337 19.4321 51.4908 19.496 51.6563 19.52L54.0711 19.8709L52.3237 21.5743C52.204 21.691 52.1145 21.8351 52.0629 21.9941C52.0112 22.1531 51.999 22.3223 52.0273 22.4871L52.4398 24.8922L50.2798 23.7565C50.1318 23.6787 49.9671 23.6381 49.8 23.6381C49.6328 23.6381 49.4681 23.6787 49.3201 23.7565L47.1601 24.8922L47.5727 22.4871C47.6009 22.3223 47.5887 22.1531 47.5371 21.9941C47.4854 21.8351 47.3959 21.691 47.2762 21.5743L45.5286 19.8709L47.9434 19.52Z" fill="#C49C6C"/>
<path d="M53.8599 30.0557C53.6695 30.0834 53.4906 30.1638 53.3435 30.2878C53.1964 30.4118 53.087 30.5746 53.0275 30.7575C52.9681 30.9405 52.961 31.1365 53.0071 31.3233C53.0532 31.5101 53.1507 31.6803 53.2884 31.8146L55.1247 33.6046L54.6912 36.1324C54.6586 36.3221 54.6798 36.5171 54.7523 36.6953C54.8248 36.8736 54.9457 37.028 55.1014 37.1411C55.257 37.2542 55.4413 37.3215 55.6332 37.3354C55.8251 37.3493 56.0171 37.3092 56.1874 37.2196L58.4572 36.0264L60.727 37.2196C60.8973 37.3091 61.0892 37.3492 61.2811 37.3353C61.473 37.3214 61.6572 37.2541 61.8129 37.141C61.9685 37.0279 62.0894 36.8735 62.1619 36.6953C62.2344 36.517 62.2556 36.3221 62.223 36.1324L61.7895 33.6051L63.6261 31.8141C63.7638 31.6798 63.8613 31.5096 63.9074 31.3228C63.9535 31.136 63.9464 30.94 63.8869 30.757C63.8275 30.574 63.718 30.4113 63.5709 30.2872C63.4238 30.1632 63.2449 30.0828 63.0545 30.0552L60.5168 29.6871L59.3825 27.3876C59.2973 27.215 59.1656 27.0697 59.0021 26.9681C58.8387 26.8665 58.6501 26.8127 58.4577 26.8127C58.2653 26.8127 58.0767 26.8665 57.9132 26.9681C57.7498 27.0697 57.6181 27.215 57.5329 27.3876L56.3985 29.6871L53.8599 30.0557ZM58.0078 31.0859L58.4578 30.174L58.908 31.0859C58.9819 31.2357 59.0911 31.3653 59.2262 31.4636C59.3613 31.5619 59.5183 31.6258 59.6836 31.65L60.69 31.7963L59.9618 32.5061C59.842 32.6228 59.7525 32.7669 59.7008 32.9259C59.6492 33.0849 59.637 33.2542 59.6653 33.419L59.8372 34.4212L58.9371 33.948C58.7891 33.8702 58.6244 33.8296 58.4572 33.8296C58.2901 33.8296 58.1254 33.8702 57.9774 33.948L57.0772 34.4212L57.2491 33.419C57.2774 33.2542 57.2652 33.0849 57.2135 32.9259C57.1619 32.7669 57.0723 32.6228 56.9526 32.5061L56.2245 31.7963L57.2309 31.65C57.3964 31.626 57.5536 31.5621 57.689 31.4639C57.8243 31.3656 57.9338 31.2359 58.0078 31.0859Z" fill="#C49C6C"/>
<path d="M8.99285 19.8893L11.8484 22.6727L11.1742 26.6029C11.1417 26.7926 11.1628 26.9875 11.2353 27.1658C11.3078 27.344 11.4287 27.4984 11.5844 27.6115C11.7401 27.7247 11.9243 27.792 12.1162 27.8058C12.3081 27.8197 12.5001 27.7796 12.6704 27.6901L16.2 25.8345L19.7296 27.6901C19.8999 27.7797 20.0919 27.8198 20.2838 27.8059C20.4758 27.7921 20.66 27.7248 20.8157 27.6116C20.9714 27.4985 21.0923 27.3441 21.1648 27.1658C21.2373 26.9876 21.2585 26.7926 21.2259 26.6029L20.5519 22.6727L23.4073 19.8893C23.5451 19.755 23.6426 19.5848 23.6887 19.398C23.7348 19.2112 23.7277 19.0152 23.6683 18.8322C23.6088 18.6491 23.4993 18.4864 23.3522 18.3624C23.205 18.2383 23.0261 18.1579 22.8357 18.1303L18.8896 17.557L17.1248 13.9812C17.0396 13.8087 16.9079 13.6634 16.7444 13.5618C16.581 13.4603 16.3925 13.4064 16.2001 13.4064C16.0077 13.4064 15.8191 13.4603 15.6557 13.5618C15.4923 13.6634 15.3605 13.8087 15.2754 13.9812L13.5105 17.557L9.56481 18.1303C9.37436 18.1579 9.19546 18.2383 9.04833 18.3624C8.9012 18.4864 8.79171 18.6491 8.73224 18.8322C8.67277 19.0152 8.6657 19.2112 8.71182 19.398C8.75795 19.5848 8.85542 19.755 8.99323 19.8893H8.99285ZM14.3436 19.52C14.5091 19.496 14.6662 19.4321 14.8014 19.3338C14.9367 19.2355 15.046 19.1059 15.12 18.9559L16.2 16.7676L17.28 18.9559C17.354 19.1059 17.4633 19.2356 17.5986 19.3338C17.7339 19.4321 17.891 19.496 18.0565 19.52L20.4713 19.8709L18.724 21.5743C18.6043 21.691 18.5147 21.8351 18.4631 21.9941C18.4114 22.1531 18.3992 22.3223 18.4275 22.4871L18.84 24.8922L16.68 23.7565C16.532 23.6788 16.3674 23.6382 16.2002 23.6382C16.033 23.6382 15.8683 23.6788 15.7203 23.7565L13.5609 24.8918L13.9734 22.4867C14.0017 22.3219 13.9895 22.1527 13.9378 21.9937C13.8862 21.8347 13.7966 21.6906 13.6769 21.5739L11.9288 19.8709L14.3436 19.52Z" fill="#C49C6C"/>
<path d="M2.37401 31.8141L4.21028 33.6046L3.77702 36.1324C3.74447 36.3221 3.76564 36.5171 3.83813 36.6954C3.91063 36.8736 4.03156 37.0281 4.18725 37.1412C4.34293 37.2543 4.52716 37.3216 4.71911 37.3354C4.91105 37.3493 5.10304 37.3092 5.27337 37.2196L7.54315 36.0263L9.81293 37.2196C9.98325 37.3091 10.1752 37.3491 10.3671 37.3352C10.5589 37.3213 10.7431 37.254 10.8987 37.1409C11.0544 37.0278 11.1752 36.8734 11.2477 36.6952C11.3202 36.517 11.3414 36.3221 11.3089 36.1324L10.8754 33.6046L12.7116 31.8141C12.8494 31.6798 12.9469 31.5096 12.993 31.3228C13.0391 31.136 13.032 30.94 12.9726 30.757C12.9131 30.574 12.8036 30.4113 12.6566 30.2873C12.5095 30.1633 12.3306 30.0828 12.1402 30.0552L9.60243 29.6871L8.46805 27.3876C8.38289 27.215 8.25115 27.0697 8.08773 26.9681C7.9243 26.8665 7.73571 26.8127 7.54328 26.8127C7.35085 26.8127 7.16226 26.8665 6.99883 26.9681C6.8354 27.0697 6.70366 27.215 6.6185 27.3876L5.48413 29.6871L2.94558 30.0557C2.75527 30.0834 2.57651 30.1638 2.4295 30.2878C2.28248 30.4118 2.17307 30.5744 2.11362 30.7573C2.05417 30.9402 2.04705 31.1361 2.09306 31.3229C2.13907 31.5096 2.23639 31.6797 2.37401 31.8141ZM6.31648 31.65C6.48192 31.6259 6.63904 31.562 6.77429 31.4638C6.90955 31.3655 7.01888 31.2358 7.09288 31.0859L7.54302 30.174L7.99303 31.0859C8.06703 31.2358 8.17636 31.3655 8.31162 31.4638C8.44687 31.562 8.60399 31.6259 8.76943 31.65L9.7758 31.7963L9.04774 32.506C8.92801 32.6228 8.83846 32.7669 8.78681 32.9259C8.73516 33.0849 8.72296 33.2542 8.75126 33.419L8.92309 34.4212L8.02294 33.948C7.87495 33.8702 7.71027 33.8296 7.54308 33.8296C7.3759 33.8296 7.21122 33.8702 7.06323 33.948L6.16308 34.4212L6.33504 33.419C6.36334 33.2542 6.35113 33.0849 6.29948 32.9259C6.24783 32.7669 6.15829 32.6228 6.03856 32.506L5.31036 31.7963L6.31648 31.65Z" fill="#C49C6C"/>
<path d="M18.5625 37.125H21.6562V39.1875H18.5625V37.125Z" fill="#C49C6C"/>
<path d="M18.5625 42.2812H21.6562V44.3438H18.5625V42.2812Z" fill="#C49C6C"/>
<path d="M18.5625 47.4375H21.6562V49.5H18.5625V47.4375Z" fill="#C49C6C"/>
<path d="M18.5625 52.5938H21.6562V54.6562H18.5625V52.5938Z" fill="#C49C6C"/>
<path d="M59.8125 50.5312H57.75C56.6564 50.5325 55.6079 50.9675 54.8345 51.7408C54.0612 52.5141 53.6262 53.5626 53.625 54.6562V56.7799C52.8814 56.8985 52.1754 57.1879 51.5625 57.6252V52.5938H49.5V57.75H42.2812V34.0312H49.5V50.5312H51.5625V33C51.5625 32.7265 51.4538 32.4642 51.2605 32.2708C51.0671 32.0774 50.8048 31.9688 50.5312 31.9688H42.2812V26.8125C42.2812 26.539 42.1726 26.2767 41.9792 26.0833C41.7858 25.8899 41.5235 25.7812 41.25 25.7812H38.1562V23.7188C38.1562 23.4452 38.0476 23.1829 37.8542 22.9895C37.6608 22.7961 37.3985 22.6875 37.125 22.6875H28.875C28.6015 22.6875 28.3392 22.7961 28.1458 22.9895C27.9524 23.1829 27.8438 23.4452 27.8438 23.7188V25.7812H24.75C24.4765 25.7812 24.2142 25.8899 24.0208 26.0833C23.8274 26.2767 23.7188 26.539 23.7188 26.8125V31.9688H15.4688C15.1952 31.9688 14.9329 32.0774 14.7395 32.2708C14.5461 32.4642 14.4375 32.7265 14.4375 33V39.1875H16.5V34.0312H23.7188V57.75H16.5V41.25H14.4375V57.6252C13.8246 57.1879 13.1186 56.8985 12.375 56.7799V54.6562C12.3738 53.5626 11.9388 52.5141 11.1655 51.7408C10.3921 50.9675 9.34364 50.5325 8.25 50.5312H6.1875C5.09386 50.5325 4.04536 50.9675 3.27204 51.7408C2.49872 52.5141 2.06373 53.5626 2.0625 54.6562V62.9062C2.0625 63.1798 2.17115 63.4421 2.36455 63.6355C2.55794 63.8288 2.82025 63.9375 3.09375 63.9375H62.9062C63.1798 63.9375 63.4421 63.8288 63.6355 63.6355C63.8288 63.4421 63.9375 63.1798 63.9375 62.9062V54.6562C63.9363 53.5626 63.5013 52.5141 62.728 51.7408C61.9546 50.9675 60.9061 50.5325 59.8125 50.5312ZM29.9062 24.75H36.0938V28.875H29.9062V24.75ZM4.125 54.6562C4.12565 54.1094 4.34315 53.5852 4.72981 53.1986C5.11646 52.8119 5.64069 52.5944 6.1875 52.5938H8.25C8.79681 52.5944 9.32104 52.8119 9.70769 53.1986C10.0943 53.5852 10.3119 54.1094 10.3125 54.6562V56.7799C9.16265 56.9653 8.11628 57.5538 7.36055 58.44C6.60482 59.3263 6.18901 60.4525 6.1875 61.6172V61.875H4.125V54.6562ZM8.25 61.875V61.6172C8.25085 60.8653 8.54991 60.1445 9.08157 59.6128C9.61323 59.0812 10.3341 58.7821 11.0859 58.7812H11.6016C12.3534 58.7821 13.0743 59.0812 13.6059 59.6128C14.1376 60.1445 14.4366 60.8653 14.4375 61.6172V61.875H8.25ZM16.5 59.8125H23.7188V61.875H16.5V59.8125ZM25.7812 27.8438H27.8438V29.9062C27.8438 30.1798 27.9524 30.4421 28.1458 30.6355C28.3392 30.8289 28.6015 30.9375 28.875 30.9375H37.125C37.3985 30.9375 37.6608 30.8289 37.8542 30.6355C38.0476 30.4421 38.1562 30.1798 38.1562 29.9062V27.8438H40.2188V61.875H37.125V54.6562C37.125 54.3827 37.0163 54.1204 36.823 53.927C36.6296 53.7336 36.3673 53.625 36.0938 53.625H29.9062C29.6327 53.625 29.3704 53.7336 29.177 53.927C28.9836 54.1204 28.875 54.3827 28.875 54.6562V61.875H25.7812V27.8438ZM30.9375 61.875V55.6875H35.0625V61.875H30.9375ZM42.2812 59.8125H49.5V61.875H42.2812V59.8125ZM51.5625 61.875V61.6172C51.5634 60.8653 51.8624 60.1445 52.3941 59.6128C52.9257 59.0812 53.6466 58.7821 54.3984 58.7812H54.9141C55.6659 58.7821 56.3868 59.0812 56.9184 59.6128C57.4501 60.1445 57.7491 60.8653 57.75 61.6172V61.875H51.5625ZM61.875 61.875H59.8125V61.6172C59.811 60.4525 59.3952 59.3263 58.6395 58.44C57.8837 57.5538 56.8373 56.9653 55.6875 56.7799V54.6562C55.6881 54.1094 55.9057 53.5852 56.2923 53.1986C56.679 52.8119 57.2032 52.5944 57.75 52.5938H59.8125C60.3593 52.5944 60.8835 52.8119 61.2702 53.1986C61.6568 53.5852 61.8744 54.1094 61.875 54.6562V61.875Z" fill="#C49C6C"/>
<path d="M44.3438 47.4375H47.4375V49.5H44.3438V47.4375Z" fill="#C49C6C"/>
<path d="M44.3438 52.5938H47.4375V54.6562H44.3438V52.5938Z" fill="#C49C6C"/>
<path d="M44.3438 37.125H47.4375V39.1875H44.3438V37.125Z" fill="#C49C6C"/>
<path d="M44.3438 42.2812H47.4375V44.3438H44.3438V42.2812Z" fill="#C49C6C"/>
</svg>
