<svg width="66" height="66" viewBox="0 0 66 66" fill="none" xmlns="http://www.w3.org/2000/svg">
<path d="M45.1 46.2C44.4925 46.2 44 46.6924 44 47.3V48.4C44 49.0075 44.4925 49.5 45.1 49.5C45.7075 49.5 46.2 49.0075 46.2 48.4V47.3C46.2 46.6924 45.7075 46.2 45.1 46.2Z" fill="#C49C6C"/>
<path d="M45.1 51.7C44.4925 51.7 44 52.1925 44 52.8V53.9C44 54.5075 44.4925 55 45.1 55C45.7075 55 46.2 54.5075 46.2 53.9V52.8C46.2 52.1925 45.7075 51.7 45.1 51.7Z" fill="#C49C6C"/>
<path d="M45.1 57.2C44.4925 57.2 44 57.6925 44 58.3V59.4C44 60.0075 44.4925 60.5 45.1 60.5C45.7075 60.5 46.2 60.0075 46.2 59.4V58.3C46.2 57.6925 45.7075 57.2 45.1 57.2Z" fill="#C49C6C"/>
<path d="M59.048 35.2C61.857 35.1951 64.3872 33.5011 65.4619 30.9058C66.5367 28.3106 65.9448 25.3236 63.9617 23.3343C61.7072 21.0653 58.6386 19.7927 55.44 19.8H43.12L34.5884 1.8854C34.0432 0.736218 32.886 0.00270989 31.614 0H28.6C26.7775 0 25.3 1.47746 25.3 3.3V19.8H10.8229L7.8463 2.9106C7.65261 1.86357 6.74079 1.10287 5.676 1.1H2.2C0.984973 1.1 0 2.08497 0 3.3V29.7C0.00363673 32.7361 2.46394 35.1964 5.5 35.2H25.3V37.4H3.3C1.47746 37.4 0 38.8775 0 40.7V62.7C0 64.5225 1.47746 66 3.3 66H62.7C64.5225 66 66 64.5225 66 62.7V57.09C65.9972 56.0367 65.2482 55.1331 64.2136 54.9351C62.6857 54.6143 61.5916 53.2667 61.5916 51.7055C61.5916 50.1443 62.6857 48.7967 64.2136 48.4759C65.2502 48.2775 65.9998 47.3709 66 46.3155V40.7C66 38.8775 64.5225 37.4 62.7 37.4H41.03L42.0772 35.2H59.048ZM27.5 3.3C27.5 2.69249 27.9925 2.2 28.6 2.2H31.614C32.0386 2.19601 32.4261 2.44142 32.604 2.827L40.6846 19.8H27.5V3.3ZM5.5 33C3.67746 33 2.2 31.5225 2.2 29.7V3.3H5.6815L8.5888 19.8H5.5C4.89249 19.8 4.4 20.2925 4.4 20.9C4.4 21.5075 4.89249 22 5.5 22H55.44C58.2395 21.9802 60.9076 23.1859 62.7429 25.3H57.2C56.5925 25.3 56.1 25.7925 56.1 26.4C56.1 27.0075 56.5925 27.5 57.2 27.5H63.7263C63.9508 28.8722 63.5609 30.2736 62.66 31.3327C61.7592 32.3918 60.4384 33.0014 59.048 33H43.12L44.99 29.073C45.159 28.7181 45.1258 28.3001 44.903 27.9763C44.6801 27.6525 44.3015 27.4722 43.9097 27.5033C43.5179 27.5344 43.1724 27.7721 43.0034 28.127L32.604 49.973C32.4221 50.355 32.0371 50.5988 31.614 50.6H28.6C27.9925 50.6 27.5 50.1075 27.5 49.5V28.6C27.5 27.9925 27.0075 27.5 26.4 27.5C25.7925 27.5 25.3 27.9925 25.3 28.6V33H5.5ZM3.3 39.6H25.3V41.8H2.2V40.7C2.2 40.0925 2.69249 39.6 3.3 39.6ZM59.4 51.7C59.4084 54.3108 61.2437 56.5591 63.8 57.09V62.7C63.8 63.3075 63.3075 63.8 62.7 63.8H46.2C46.2 63.1925 45.7075 62.7 45.1 62.7C44.4925 62.7 44 63.1925 44 63.8H3.3C2.69249 63.8 2.2 63.3075 2.2 62.7V44H25.3V49.5C25.3 51.3225 26.7775 52.8 28.6 52.8H31.6107C32.8826 52.7965 34.0403 52.0657 34.5906 50.919L37.8906 44H63.7692V46.3177C61.2296 46.8632 59.4118 49.1025 59.4 51.7ZM63.8 40.7V41.8H46.2V39.6H62.7C63.3075 39.6 63.8 40.0925 63.8 40.7ZM44 39.6V41.8H38.9323L39.9806 39.6H44Z" fill="#C49C6C"/>
<path d="M13.2 25.3H11C10.3925 25.3 9.90002 25.7925 9.90002 26.4C9.90002 27.0075 10.3925 27.5 11 27.5H13.2C13.8075 27.5 14.3 27.0075 14.3 26.4C14.3 25.7925 13.8075 25.3 13.2 25.3Z" fill="#C49C6C"/>
<path d="M19.8 25.3H17.6C16.9925 25.3 16.5 25.7925 16.5 26.4C16.5 27.0075 16.9925 27.5 17.6 27.5H19.8C20.4075 27.5 20.9 27.0075 20.9 26.4C20.9 25.7925 20.4075 25.3 19.8 25.3Z" fill="#C49C6C"/>
<path d="M30.8 27.5H33C33.6075 27.5 34.1 27.0075 34.1 26.4C34.1 25.7925 33.6075 25.3 33 25.3H30.8C30.1924 25.3 29.7 25.7925 29.7 26.4C29.7 27.0075 30.1924 27.5 30.8 27.5Z" fill="#C49C6C"/>
<path d="M37.4 27.5H39.6C40.2076 27.5 40.7001 27.0075 40.7001 26.4C40.7001 25.7925 40.2076 25.3 39.6 25.3H37.4C36.7925 25.3 36.3 25.7925 36.3 26.4C36.3 27.0075 36.7925 27.5 37.4 27.5Z" fill="#C49C6C"/>
<path d="M50.6 27.5H52.8C53.4075 27.5 53.9 27.0075 53.9 26.4C53.9 25.7925 53.4075 25.3 52.8 25.3H50.6C49.9925 25.3 49.5 25.7925 49.5 26.4C49.5 27.0075 49.9925 27.5 50.6 27.5Z" fill="#C49C6C"/>
<path d="M49.4999 56.1C48.8924 56.1 48.3999 56.5925 48.3999 57.2V60.5C48.3999 61.1076 48.8924 61.6 49.4999 61.6C50.1074 61.6 50.5999 61.1076 50.5999 60.5V57.2C50.5999 56.5925 50.1074 56.1 49.4999 56.1Z" fill="#C49C6C"/>
<path d="M53.8999 56.1C53.2924 56.1 52.7999 56.5925 52.7999 57.2V60.5C52.7999 61.1076 53.2924 61.6 53.8999 61.6C54.5074 61.6 54.9999 61.1076 54.9999 60.5V57.2C54.9999 56.5925 54.5074 56.1 53.8999 56.1Z" fill="#C49C6C"/>
<path d="M58.2999 56.1C57.6924 56.1 57.2 56.5925 57.2 57.2V60.5C57.2 61.1076 57.6924 61.6 58.2999 61.6C58.9075 61.6 59.3999 61.1076 59.3999 60.5V57.2C59.3999 56.5925 58.9075 56.1 58.2999 56.1Z" fill="#C49C6C"/>
<path d="M6.6 49.5H22C22.6075 49.5 23.1 49.0075 23.1 48.4C23.1 47.7925 22.6075 47.3 22 47.3H6.6C5.99249 47.3 5.5 47.7925 5.5 48.4C5.5 49.0075 5.99249 49.5 6.6 49.5Z" fill="#C49C6C"/>
<path d="M6.6 53.9H22C22.6075 53.9 23.1 53.4075 23.1 52.8C23.1 52.1925 22.6075 51.7 22 51.7H6.6C5.99249 51.7 5.5 52.1925 5.5 52.8C5.5 53.4075 5.99249 53.9 6.6 53.9Z" fill="#C49C6C"/>
<path d="M39.6 56.1H6.6C5.99249 56.1 5.5 56.5925 5.5 57.2C5.5 57.8075 5.99249 58.3 6.6 58.3H39.6C40.2075 58.3 40.7 57.8075 40.7 57.2C40.7 56.5925 40.2075 56.1 39.6 56.1Z" fill="#C49C6C"/>
</svg>
