<svg width="66" height="66" viewBox="0 0 66 66" fill="none" xmlns="http://www.w3.org/2000/svg">
<path d="M63.8001 54.1024V42.9C63.8001 40.4699 61.8301 38.5 59.4001 38.5H56.8085L52.1885 28.3338C51.6511 27.1569 50.477 26.4014 49.1833 26.4H45.1001V23.1C45.1001 21.8849 44.1151 20.9 42.9001 20.9H30.8001C29.585 20.9 28.6001 21.8849 28.6001 23.1V26.4H24.4069C23.1992 26.3997 22.0879 27.0592 21.5095 28.1193L15.8467 38.5H6.60006C4.17001 38.5 2.20006 40.4699 2.20006 42.9V54.0991C1.74068 54.2556 1.32386 54.5165 0.982359 54.8614C0.349587 55.4742 -0.00527101 56.3191 5.91922e-05 57.2C5.91922e-05 59.0225 1.47752 60.5 3.30006 60.5H7.08186C8.24288 63.7954 11.3567 65.9997 14.8506 65.9997C18.3446 65.9997 21.4583 63.7954 22.6194 60.5H44.4819C45.6429 63.7954 48.7567 65.9997 52.2506 65.9997C55.7446 65.9997 58.8583 63.7954 60.0194 60.5H62.7001C64.5183 60.4897 65.9898 59.0183 66.0001 57.2C65.9943 55.8065 65.1138 54.5668 63.8001 54.1024ZM30.8001 23.1H42.9001V26.4H30.8001V23.1ZM23.4411 29.1731C23.6339 28.8197 24.0043 28.5999 24.4069 28.6H49.1833C49.6148 28.5997 50.0067 28.8517 50.1854 29.2446L54.3918 38.5H44.5677L47.2077 32.3334C47.3692 31.971 47.323 31.5497 47.0869 31.2309C46.8508 30.9121 46.4613 30.7451 46.0676 30.7939C45.6739 30.8427 45.337 31.0997 45.1859 31.4666L42.1752 38.5H26.9677L29.6077 32.3334C29.8367 31.7773 29.5768 31.1403 29.024 30.9034C28.4713 30.6664 27.8307 30.9173 27.5859 31.4666L24.5752 38.5H18.3536L23.4411 29.1731ZM16.5001 40.7H59.4001C60.6151 40.7 61.6001 41.6849 61.6001 42.9V53.9H59.5409C58.1156 51.1937 55.3087 49.4996 52.2501 49.4996C49.1915 49.4996 46.3845 51.1937 44.9593 53.9H22.1409C20.7156 51.1937 17.9087 49.4996 14.8501 49.4996C11.7915 49.4996 8.98451 51.1937 7.55926 53.9H4.40006V46.2H7.96516C10.2475 46.1969 12.097 44.3475 12.1001 42.0651V40.7H16.5001ZM6.60006 40.7H9.90006V42.0651C9.89885 43.1332 9.03327 43.9988 7.96516 44H4.40006V42.9C4.40006 41.6849 5.38503 40.7 6.60006 40.7ZM3.30006 58.3C2.69255 58.3 2.20006 57.8075 2.20006 57.2C2.19962 56.9037 2.3214 56.6203 2.53666 56.4168C2.7373 56.2115 3.01304 56.0971 3.30006 56.1H6.76616C6.65543 56.643 6.59978 57.1958 6.60006 57.75C6.60006 57.9359 6.61546 58.1174 6.62756 58.3H3.30006ZM14.8501 63.8C11.5087 63.8 8.80006 61.0913 8.80006 57.75C8.80006 54.4086 11.5087 51.7 14.8501 51.7C18.1914 51.7 20.9001 54.4086 20.9001 57.75C20.8964 61.0898 18.1899 63.7963 14.8501 63.8ZM23.0726 58.3C23.0847 58.1174 23.1001 57.9359 23.1001 57.75C23.1003 57.1958 23.0447 56.643 22.934 56.1H44.164C44.054 56.6431 43.9991 57.1959 44.0001 57.75C44.0001 57.9359 44.0155 58.1174 44.0276 58.3H23.0726ZM52.2501 63.8C48.9087 63.8 46.2001 61.0913 46.2001 57.75C46.2001 54.4086 48.9087 51.7 52.2501 51.7C55.5914 51.7 58.3001 54.4086 58.3001 57.75C58.2964 61.0898 55.5899 63.7963 52.2501 63.8ZM63.4635 57.9832C63.2628 58.1884 62.9871 58.3029 62.7001 58.3H60.4726C60.4847 58.1174 60.5001 57.9359 60.5001 57.75C60.5003 57.1958 60.4447 56.643 60.334 56.1H62.7001C63.3076 56.1 63.8001 56.5924 63.8001 57.2C63.8005 57.4962 63.6787 57.7796 63.4635 57.9832Z" fill="#C49C6C"/>
<path d="M14.8501 53.9C12.7238 53.9 11.0001 55.6237 11.0001 57.75C11.0001 59.8763 12.7238 61.6 14.8501 61.6C16.9764 61.6 18.7001 59.8763 18.7001 57.75C18.7001 55.6237 16.9764 53.9 14.8501 53.9ZM14.8501 59.4C13.9389 59.4 13.2001 58.6612 13.2001 57.75C13.2001 56.8387 13.9389 56.1 14.8501 56.1C15.7614 56.1 16.5001 56.8387 16.5001 57.75C16.5001 58.6612 15.7614 59.4 14.8501 59.4Z" fill="#C49C6C"/>
<path d="M52.25 53.9C50.1237 53.9 48.4 55.6237 48.4 57.75C48.4 59.8763 50.1237 61.6 52.25 61.6C54.3763 61.6 56.1 59.8763 56.1 57.75C56.1 55.6237 54.3763 53.9 52.25 53.9ZM52.25 59.4C51.3388 59.4 50.6 58.6612 50.6 57.75C50.6 56.8387 51.3388 56.1 52.25 56.1C53.1613 56.1 53.9 56.8387 53.9 57.75C53.9 58.6612 53.1613 59.4 52.25 59.4Z" fill="#C49C6C"/>
<path d="M24.2 49.5H26.4C26.4 50.715 27.385 51.7 28.6 51.7H30.8C32.015 51.7 33 50.715 33 49.5H35.2C35.2 50.715 36.185 51.7 37.4 51.7H39.6C40.815 51.7 41.8 50.715 41.8 49.5H44C45.215 49.5 46.2 48.515 46.2 47.3V45.1C46.2 43.8849 45.215 42.9 44 42.9H41.8C40.585 42.9 39.6 43.8849 39.6 45.1H37.4C37.4 43.8849 36.415 42.9 35.2 42.9H33C31.785 42.9 30.8 43.8849 30.8 45.1H28.6C28.6 43.8849 27.615 42.9 26.4 42.9H24.2C22.985 42.9 22 43.8849 22 45.1V47.3C22 48.515 22.985 49.5 24.2 49.5ZM41.8 45.1H44V47.3H41.8V45.1ZM39.6 47.3V49.5H37.4V47.3H39.6ZM33 45.1H35.2V47.3H33V45.1ZM30.8 47.3V49.5H28.6V47.3H30.8ZM24.2 45.1H26.4V47.3H24.2V45.1Z" fill="#C49C6C"/>
<path d="M60.995 6.47241C60.2165 5.84322 59.2459 5.5 58.245 5.50001H45.0626L38.1568 0.427909C37.7776 0.150279 37.3199 0.000424566 36.85 9.49221e-06H33.9537C33.1423 -0.000788657 32.3963 0.445105 32.0128 1.16015C31.6292 1.8752 31.6705 2.7433 32.12 3.41881L33.5082 5.50001H23.8458L22.1958 1.39041C21.8667 0.549623 21.0549 -0.00264012 20.152 9.49221e-06H18.7C17.4849 9.49221e-06 16.5 0.984983 16.5 2.20001V8.80001H13.2C12.5925 8.80001 12.1 9.29249 12.1 9.90001C12.1 10.5075 12.5925 11 13.2 11H16.5C16.5036 14.0361 18.9639 16.4964 22 16.5H31.7669C31.7589 17.0838 31.9864 17.6462 32.3981 18.0602C32.8098 18.4742 33.3709 18.7048 33.9548 18.7H36.8566C37.3251 18.7015 37.7816 18.5514 38.1579 18.2721L40.5713 16.5H61.93C63.6606 16.5029 65.2037 15.411 65.777 13.7781C66.3502 12.1451 65.828 10.3283 64.4754 9.24881L60.995 6.47241ZM59.62 8.18621L61.7639 9.90001H56.1C55.4925 9.90001 55 9.40752 55 8.80001V7.7L58.245 7.70001C58.7456 7.69888 59.2313 7.87062 59.62 8.18621ZM33.9537 2.20001H36.85L41.3435 5.50001H36.1504L33.9537 2.20001ZM63.25 13.75C62.9008 14.1019 62.4257 14.2999 61.93 14.3H43.56L46.8457 11.8866C47.3353 11.527 47.4407 10.8385 47.0811 10.3488C46.7214 9.85915 46.0329 9.75376 45.5433 10.1134L36.8566 16.5H33.9548L37.2152 11.6105C37.4333 11.2835 37.4604 10.865 37.2863 10.5127C37.1122 10.1603 36.7633 9.92758 36.3711 9.90217C35.9789 9.87677 35.6029 10.0625 35.3848 10.3895L32.78 14.3H22C20.1774 14.3 18.7 12.8225 18.7 11H20.9C21.5075 11 22 10.5075 22 9.90001C22 9.29249 21.5075 8.80001 20.9 8.80001H18.7V2.20001H20.1542L21.8042 6.30961C22.1333 7.15039 22.9451 7.70266 23.848 7.70001H52.8V8.80001C52.8 10.6225 54.2774 12.1 56.1 12.1H63.7626C63.785 12.2087 63.7975 12.3191 63.8 12.43C63.7998 12.9257 63.6019 13.4009 63.25 13.75Z" fill="#C49C6C"/>
<path d="M12.1001 15.4H13.2001C13.8076 15.4 14.3001 14.9075 14.3001 14.3C14.3001 13.6924 13.8076 13.2 13.2001 13.2H12.1001C11.4926 13.2 11.0001 13.6924 11.0001 14.3C11.0001 14.9075 11.4926 15.4 12.1001 15.4Z" fill="#C49C6C"/>
<path d="M1.1 15.4H7.7C8.30751 15.4 8.8 14.9075 8.8 14.3C8.8 13.6924 8.30751 13.2 7.7 13.2H1.1C0.492487 13.2 0 13.6924 0 14.3C0 14.9075 0.492487 15.4 1.1 15.4Z" fill="#C49C6C"/>
<path d="M1.1 6.59996H2.2C2.80751 6.59996 3.3 6.10748 3.3 5.49996C3.3 4.89245 2.80751 4.39996 2.2 4.39996H1.1C0.492487 4.39996 0 4.89245 0 5.49996C0 6.10748 0.492487 6.59996 1.1 6.59996Z" fill="#C49C6C"/>
<path d="M14.3 5.49996C14.3 4.89245 13.8075 4.39996 13.2 4.39996H6.6C5.99249 4.39996 5.5 4.89245 5.5 5.49996C5.5 6.10748 5.99249 6.59996 6.6 6.59996H13.2C13.8075 6.59996 14.3 6.10748 14.3 5.49996Z" fill="#C49C6C"/>
<path d="M1.1 11H8.8C9.40751 11 9.9 10.5075 9.9 9.89999C9.9 9.29247 9.40751 8.79999 8.8 8.79999H1.1C0.492487 8.79999 0 9.29247 0 9.89999C0 10.5075 0.492487 11 1.1 11Z" fill="#C49C6C"/>
</svg>
