<svg width="169" height="19" viewBox="0 0 169 19" fill="none" xmlns="http://www.w3.org/2000/svg">
<path d="M9.746 8.448C10.466 8.676 11.03 9.06 11.438 9.6C11.846 10.128 12.05 10.782 12.05 11.562C12.05 12.666 11.618 13.518 10.754 14.118C9.902 14.706 8.654 15 7.01 15H0.494V2.4H6.65C8.186 2.4 9.362 2.694 10.178 3.282C11.006 3.87 11.42 4.668 11.42 5.676C11.42 6.288 11.27 6.834 10.97 7.314C10.682 7.794 10.274 8.172 9.746 8.448ZM3.392 4.596V7.566H6.29C7.01 7.566 7.556 7.44 7.928 7.188C8.3 6.936 8.486 6.564 8.486 6.072C8.486 5.58 8.3 5.214 7.928 4.974C7.556 4.722 7.01 4.596 6.29 4.596H3.392ZM6.794 12.804C7.562 12.804 8.138 12.678 8.522 12.426C8.918 12.174 9.116 11.784 9.116 11.256C9.116 10.212 8.342 9.69 6.794 9.69H3.392V12.804H6.794ZM23.8157 5.316V15H21.1517V13.848C20.7797 14.268 20.3357 14.592 19.8197 14.82C19.3037 15.036 18.7457 15.144 18.1457 15.144C16.8737 15.144 15.8657 14.778 15.1217 14.046C14.3777 13.314 14.0057 12.228 14.0057 10.788V5.316H16.8137V10.374C16.8137 11.934 17.4677 12.714 18.7757 12.714C19.4477 12.714 19.9877 12.498 20.3957 12.066C20.8037 11.622 21.0077 10.968 21.0077 10.104V5.316H23.8157ZM29.6751 15.144C28.8711 15.144 28.0851 15.048 27.3171 14.856C26.5491 14.652 25.9371 14.4 25.4811 14.1L26.4171 12.084C26.8491 12.36 27.3711 12.588 27.9831 12.768C28.5951 12.936 29.1951 13.02 29.7831 13.02C30.9711 13.02 31.5651 12.726 31.5651 12.138C31.5651 11.862 31.4031 11.664 31.0791 11.544C30.7551 11.424 30.2571 11.322 29.5851 11.238C28.7931 11.118 28.1391 10.98 27.6231 10.824C27.1071 10.668 26.6571 10.392 26.2731 9.996C25.9011 9.6 25.7151 9.036 25.7151 8.304C25.7151 7.692 25.8891 7.152 26.2371 6.684C26.5971 6.204 27.1131 5.832 27.7851 5.568C28.4691 5.304 29.2731 5.172 30.1971 5.172C30.8811 5.172 31.5591 5.25 32.2311 5.406C32.9151 5.55 33.4791 5.754 33.9231 6.018L32.9871 8.016C32.1351 7.536 31.2051 7.296 30.1971 7.296C29.5971 7.296 29.1471 7.38 28.8471 7.548C28.5471 7.716 28.3971 7.932 28.3971 8.196C28.3971 8.496 28.5591 8.706 28.8831 8.826C29.2071 8.946 29.7231 9.06 30.4311 9.168C31.2231 9.3 31.8711 9.444 32.3751 9.6C32.8791 9.744 33.3171 10.014 33.6891 10.41C34.0611 10.806 34.2471 11.358 34.2471 12.066C34.2471 12.666 34.0671 13.2 33.7071 13.668C33.3471 14.136 32.8191 14.502 32.1231 14.766C31.4391 15.018 30.6231 15.144 29.6751 15.144ZM35.9796 5.316H38.7876V15H35.9796V5.316ZM37.3836 3.966C36.8676 3.966 36.4476 3.816 36.1236 3.516C35.7996 3.216 35.6376 2.844 35.6376 2.4C35.6376 1.956 35.7996 1.584 36.1236 1.284C36.4476 0.983999 36.8676 0.833999 37.3836 0.833999C37.8996 0.833999 38.3196 0.977999 38.6436 1.266C38.9676 1.554 39.1296 1.914 39.1296 2.346C39.1296 2.814 38.9676 3.204 38.6436 3.516C38.3196 3.816 37.8996 3.966 37.3836 3.966ZM47.2797 5.172C48.4797 5.172 49.4457 5.532 50.1777 6.252C50.9217 6.972 51.2937 8.04 51.2937 9.456V15H48.4857V9.888C48.4857 9.12 48.3177 8.55 47.9817 8.178C47.6457 7.794 47.1597 7.602 46.5237 7.602C45.8157 7.602 45.2517 7.824 44.8317 8.268C44.4117 8.7 44.2017 9.348 44.2017 10.212V15H41.3937V5.316H44.0757V6.45C44.4477 6.042 44.9097 5.73 45.4617 5.514C46.0137 5.286 46.6197 5.172 47.2797 5.172ZM63.4304 10.194C63.4304 10.23 63.4124 10.482 63.3764 10.95H56.0504C56.1824 11.55 56.4944 12.024 56.9864 12.372C57.4784 12.72 58.0904 12.894 58.8224 12.894C59.3264 12.894 59.7704 12.822 60.1544 12.678C60.5504 12.522 60.9164 12.282 61.2524 11.958L62.7464 13.578C61.8344 14.622 60.5024 15.144 58.7504 15.144C57.6584 15.144 56.6924 14.934 55.8524 14.514C55.0124 14.082 54.3644 13.488 53.9084 12.732C53.4524 11.976 53.2244 11.118 53.2244 10.158C53.2244 9.21 53.4464 8.358 53.8904 7.602C54.3464 6.834 54.9644 6.24 55.7444 5.82C56.5364 5.388 57.4184 5.172 58.3904 5.172C59.3384 5.172 60.1964 5.376 60.9644 5.784C61.7324 6.192 62.3324 6.78 62.7644 7.548C63.2084 8.304 63.4304 9.186 63.4304 10.194ZM58.4084 7.296C57.7724 7.296 57.2384 7.476 56.8064 7.836C56.3744 8.196 56.1104 8.688 56.0144 9.312H60.7844C60.6884 8.7 60.4244 8.214 59.9924 7.854C59.5604 7.482 59.0324 7.296 58.4084 7.296ZM68.5579 15.144C67.7539 15.144 66.9679 15.048 66.1999 14.856C65.4319 14.652 64.8199 14.4 64.3639 14.1L65.2999 12.084C65.7319 12.36 66.2539 12.588 66.8659 12.768C67.4779 12.936 68.0779 13.02 68.6659 13.02C69.8539 13.02 70.4479 12.726 70.4479 12.138C70.4479 11.862 70.2859 11.664 69.9619 11.544C69.6379 11.424 69.1399 11.322 68.4679 11.238C67.6759 11.118 67.0219 10.98 66.5059 10.824C65.9899 10.668 65.5399 10.392 65.1559 9.996C64.7839 9.6 64.5979 9.036 64.5979 8.304C64.5979 7.692 64.7719 7.152 65.1199 6.684C65.4799 6.204 65.9959 5.832 66.6679 5.568C67.3519 5.304 68.1559 5.172 69.0799 5.172C69.7639 5.172 70.4419 5.25 71.1139 5.406C71.7979 5.55 72.3619 5.754 72.8059 6.018L71.8699 8.016C71.0179 7.536 70.0879 7.296 69.0799 7.296C68.4799 7.296 68.0299 7.38 67.7299 7.548C67.4299 7.716 67.2799 7.932 67.2799 8.196C67.2799 8.496 67.4419 8.706 67.7659 8.826C68.0899 8.946 68.6059 9.06 69.3139 9.168C70.1059 9.3 70.7539 9.444 71.2579 9.6C71.7619 9.744 72.1999 10.014 72.5719 10.41C72.9439 10.806 73.1299 11.358 73.1299 12.066C73.1299 12.666 72.9499 13.2 72.5899 13.668C72.2299 14.136 71.7019 14.502 71.0059 14.766C70.3219 15.018 69.5059 15.144 68.5579 15.144ZM78.1204 15.144C77.3164 15.144 76.5304 15.048 75.7624 14.856C74.9944 14.652 74.3824 14.4 73.9264 14.1L74.8624 12.084C75.2944 12.36 75.8164 12.588 76.4284 12.768C77.0404 12.936 77.6404 13.02 78.2284 13.02C79.4164 13.02 80.0104 12.726 80.0104 12.138C80.0104 11.862 79.8484 11.664 79.5244 11.544C79.2004 11.424 78.7024 11.322 78.0304 11.238C77.2384 11.118 76.5844 10.98 76.0684 10.824C75.5524 10.668 75.1024 10.392 74.7184 9.996C74.3464 9.6 74.1604 9.036 74.1604 8.304C74.1604 7.692 74.3344 7.152 74.6824 6.684C75.0424 6.204 75.5584 5.832 76.2304 5.568C76.9144 5.304 77.7184 5.172 78.6424 5.172C79.3264 5.172 80.0044 5.25 80.6764 5.406C81.3604 5.55 81.9244 5.754 82.3684 6.018L81.4324 8.016C80.5804 7.536 79.6504 7.296 78.6424 7.296C78.0424 7.296 77.5924 7.38 77.2924 7.548C76.9924 7.716 76.8424 7.932 76.8424 8.196C76.8424 8.496 77.0044 8.706 77.3284 8.826C77.6524 8.946 78.1684 9.06 78.8764 9.168C79.6684 9.3 80.3164 9.444 80.8204 9.6C81.3244 9.744 81.7624 10.014 82.1344 10.41C82.5064 10.806 82.6924 11.358 82.6924 12.066C82.6924 12.666 82.5124 13.2 82.1524 13.668C81.7924 14.136 81.2644 14.502 80.5684 14.766C79.8844 15.018 79.0684 15.144 78.1204 15.144ZM89.7206 2.4H92.6366V12.624H98.9546V15H89.7206V2.4ZM104.924 15.144C103.904 15.144 102.986 14.934 102.17 14.514C101.366 14.082 100.736 13.488 100.28 12.732C99.8235 11.976 99.5955 11.118 99.5955 10.158C99.5955 9.198 99.8235 8.34 100.28 7.584C100.736 6.828 101.366 6.24 102.17 5.82C102.986 5.388 103.904 5.172 104.924 5.172C105.944 5.172 106.856 5.388 107.66 5.82C108.464 6.24 109.094 6.828 109.55 7.584C110.006 8.34 110.234 9.198 110.234 10.158C110.234 11.118 110.006 11.976 109.55 12.732C109.094 13.488 108.464 14.082 107.66 14.514C106.856 14.934 105.944 15.144 104.924 15.144ZM104.924 12.84C105.644 12.84 106.232 12.6 106.688 12.12C107.156 11.628 107.39 10.974 107.39 10.158C107.39 9.342 107.156 8.694 106.688 8.214C106.232 7.722 105.644 7.476 104.924 7.476C104.204 7.476 103.61 7.722 103.142 8.214C102.674 8.694 102.44 9.342 102.44 10.158C102.44 10.974 102.674 11.628 103.142 12.12C103.61 12.6 104.204 12.84 104.924 12.84ZM121.866 5.316V15H119.202V13.848C118.83 14.268 118.386 14.592 117.87 14.82C117.354 15.036 116.796 15.144 116.196 15.144C114.924 15.144 113.916 14.778 113.172 14.046C112.428 13.314 112.056 12.228 112.056 10.788V5.316H114.864V10.374C114.864 11.934 115.518 12.714 116.826 12.714C117.498 12.714 118.038 12.498 118.446 12.066C118.854 11.622 119.058 10.968 119.058 10.104V5.316H121.866ZM130.354 5.172C131.554 5.172 132.52 5.532 133.252 6.252C133.996 6.972 134.368 8.04 134.368 9.456V15H131.56V9.888C131.56 9.12 131.392 8.55 131.056 8.178C130.72 7.794 130.234 7.602 129.598 7.602C128.89 7.602 128.326 7.824 127.906 8.268C127.486 8.7 127.276 9.348 127.276 10.212V15H124.468V5.316H127.15V6.45C127.522 6.042 127.984 5.73 128.536 5.514C129.088 5.286 129.694 5.172 130.354 5.172ZM147.009 5.316V13.38C147.009 15.156 146.547 16.476 145.623 17.34C144.699 18.204 143.349 18.636 141.573 18.636C140.637 18.636 139.749 18.522 138.909 18.294C138.069 18.066 137.373 17.736 136.821 17.304L137.937 15.288C138.345 15.624 138.861 15.888 139.485 16.08C140.109 16.284 140.733 16.386 141.357 16.386C142.329 16.386 143.043 16.164 143.499 15.72C143.967 15.288 144.201 14.628 144.201 13.74V13.326C143.469 14.13 142.449 14.532 141.141 14.532C140.253 14.532 139.437 14.34 138.693 13.956C137.961 13.56 137.379 13.008 136.947 12.3C136.515 11.592 136.299 10.776 136.299 9.852C136.299 8.928 136.515 8.112 136.947 7.404C137.379 6.696 137.961 6.15 138.693 5.766C139.437 5.37 140.253 5.172 141.141 5.172C142.545 5.172 143.613 5.634 144.345 6.558V5.316H147.009ZM141.699 12.228C142.443 12.228 143.049 12.012 143.517 11.58C143.997 11.136 144.237 10.56 144.237 9.852C144.237 9.144 143.997 8.574 143.517 8.142C143.049 7.698 142.443 7.476 141.699 7.476C140.955 7.476 140.343 7.698 139.863 8.142C139.383 8.574 139.143 9.144 139.143 9.852C139.143 10.56 139.383 11.136 139.863 11.58C140.343 12.012 140.955 12.228 141.699 12.228ZM159.108 10.194C159.108 10.23 159.09 10.482 159.054 10.95H151.728C151.86 11.55 152.172 12.024 152.664 12.372C153.156 12.72 153.768 12.894 154.5 12.894C155.004 12.894 155.448 12.822 155.832 12.678C156.228 12.522 156.594 12.282 156.93 11.958L158.424 13.578C157.512 14.622 156.18 15.144 154.428 15.144C153.336 15.144 152.37 14.934 151.53 14.514C150.69 14.082 150.042 13.488 149.586 12.732C149.13 11.976 148.902 11.118 148.902 10.158C148.902 9.21 149.124 8.358 149.568 7.602C150.024 6.834 150.642 6.24 151.422 5.82C152.214 5.388 153.096 5.172 154.068 5.172C155.016 5.172 155.874 5.376 156.642 5.784C157.41 6.192 158.01 6.78 158.442 7.548C158.886 8.304 159.108 9.186 159.108 10.194ZM154.086 7.296C153.45 7.296 152.916 7.476 152.484 7.836C152.052 8.196 151.788 8.688 151.692 9.312H156.462C156.366 8.7 156.102 8.214 155.67 7.854C155.238 7.482 154.71 7.296 154.086 7.296ZM164.236 15.144C163.432 15.144 162.646 15.048 161.878 14.856C161.11 14.652 160.498 14.4 160.042 14.1L160.978 12.084C161.41 12.36 161.932 12.588 162.544 12.768C163.156 12.936 163.756 13.02 164.344 13.02C165.532 13.02 166.126 12.726 166.126 12.138C166.126 11.862 165.964 11.664 165.64 11.544C165.316 11.424 164.818 11.322 164.146 11.238C163.354 11.118 162.7 10.98 162.184 10.824C161.668 10.668 161.218 10.392 160.834 9.996C160.462 9.6 160.276 9.036 160.276 8.304C160.276 7.692 160.45 7.152 160.798 6.684C161.158 6.204 161.674 5.832 162.346 5.568C163.03 5.304 163.834 5.172 164.758 5.172C165.442 5.172 166.12 5.25 166.792 5.406C167.476 5.55 168.04 5.754 168.484 6.018L167.548 8.016C166.696 7.536 165.766 7.296 164.758 7.296C164.158 7.296 163.708 7.38 163.408 7.548C163.108 7.716 162.958 7.932 162.958 8.196C162.958 8.496 163.12 8.706 163.444 8.826C163.768 8.946 164.284 9.06 164.992 9.168C165.784 9.3 166.432 9.444 166.936 9.6C167.44 9.744 167.878 10.014 168.25 10.41C168.622 10.806 168.808 11.358 168.808 12.066C168.808 12.666 168.628 13.2 168.268 13.668C167.908 14.136 167.38 14.502 166.684 14.766C166 15.018 165.184 15.144 164.236 15.144Z" fill="#232323"/>
</svg>
