<svg width="17" height="10" viewBox="0 0 17 10" fill="none" xmlns="http://www.w3.org/2000/svg">
<path d="M16.6072 0.687499C16.5441 1 16.2915 1.51041 15.8495 2.21875C15.4285 2.92709 15.0392 3.55208 14.6813 4.09375C14.3235 4.61458 14.134 4.88542 14.113 4.90625C13.9867 5.09375 13.9235 5.22917 13.9235 5.3125C13.9235 5.39583 13.9867 5.54167 14.113 5.75C14.113 5.75 14.1762 5.82291 14.3024 5.96875C14.4498 6.11458 14.6182 6.28125 14.8076 6.46875C14.997 6.65625 15.2075 6.87499 15.439 7.12501C15.6705 7.37499 15.881 7.62501 16.0705 7.87499C16.281 8.10417 16.4598 8.34375 16.6072 8.59375C16.7756 8.84375 16.8913 9.05208 16.9545 9.21875C17.1018 9.73959 16.8913 10 16.323 10H14.4603C14.313 10 14.1867 9.97917 14.0814 9.9375C13.9762 9.89583 13.8604 9.82292 13.7342 9.71875C13.6078 9.61458 13.492 9.5 13.3868 9.375C13.2815 9.25 13.1237 9.07292 12.9132 8.84375C12.7027 8.61458 12.4922 8.39583 12.2817 8.1875C11.4399 7.39583 10.8189 7 10.419 7C10.1664 7 10.0191 7.07291 9.97697 7.21875C9.93487 7.36458 9.91382 7.78125 9.91382 8.46875C9.93487 8.80208 9.94539 9.07292 9.94539 9.28125C9.94539 9.53125 9.86121 9.71875 9.69281 9.84375C9.52443 9.94792 9.15608 10 8.58777 10C7.59849 10 6.5987 9.70833 5.58837 9.12501C4.57804 8.54167 3.694 7.70833 2.93626 6.62501C2.22061 5.66666 1.62073 4.71875 1.13662 3.78125C0.673545 2.82291 0.368349 2.09375 0.22101 1.59375C0.0736694 1.09375 0 0.739589 0 0.53125C0 0.177083 0.210485 0 0.631458 0H2.49424C2.72578 0 2.89416 0.0520834 2.99941 0.15625C3.12569 0.260417 3.23094 0.447917 3.31513 0.718754C3.75715 1.98959 4.29388 3.12501 4.92534 4.12501C5.57784 5.12501 6.07248 5.62501 6.40925 5.62501C6.53555 5.62501 6.61973 5.58334 6.66183 5.5C6.72498 5.39583 6.75655 5.20833 6.75655 4.9375V2.21875C6.7355 1.92709 6.68288 1.67709 6.5987 1.46875C6.5145 1.26041 6.4303 1.11458 6.3461 1.03125C6.26192 0.927086 6.17772 0.822914 6.09353 0.718754C6.03039 0.614583 5.99881 0.520833 5.99881 0.437499C5.99881 0.354167 6.01986 0.28125 6.06195 0.21875C6.10405 0.15625 6.15667 0.104167 6.21982 0.0625006C6.30402 0.0208332 6.3882 0 6.4724 0H9.40866C9.74544 0 9.91382 0.229167 9.91382 0.687499V4.3125C9.91382 4.66666 10.0085 4.84375 10.198 4.84375C10.4085 4.84375 10.7031 4.65625 11.082 4.28125C11.4819 3.84375 11.8713 3.3125 12.2502 2.6875C12.629 2.0625 12.9132 1.54167 13.1027 1.12501L13.3868 0.53125C13.5342 0.177083 13.7973 0 14.1762 0H16.039C16.5441 0 16.7335 0.229167 16.6072 0.687499Z" fill="#232323"/>
</svg>
