<svg width="12" height="23" viewBox="0 0 12 23" fill="none" xmlns="http://www.w3.org/2000/svg">
<path d="M11.3431 13.6875H8.60584V22H4.9562V13.6875H2V10.2363H4.9562V7.63867C4.9562 6.64909 5.13869 5.80794 5.50365 5.11523C5.86861 4.42253 6.37956 3.903 7.0365 3.55664C7.71776 3.18555 8.49635 3 9.37226 3C9.76155 3 10.1752 3.02474 10.6131 3.07422C11.0511 3.09896 11.3917 3.13607 11.635 3.18555L12 3.22266V6.1543H10.5401C9.85888 6.1543 9.36009 6.33984 9.0438 6.71094C8.75182 7.0573 8.60584 7.49023 8.60584 8.00977V10.2363H11.854L11.3431 13.6875Z" fill="#232323"/>
</svg>
