<svg width="17" height="15" viewBox="0 0 17 15" fill="none" xmlns="http://www.w3.org/2000/svg">
<path d="M16.9534 1.38807L14.3746 14.0773C14.1723 14.9819 13.7047 15.2213 12.9716 14.7957L9.06553 11.763L7.16941 13.6784C6.9166 13.9444 6.65115 14.0773 6.37305 14.0773L6.67642 9.88753L13.9196 3.02412C14.0965 2.83791 14.0965 2.73149 13.9196 2.70489C13.7679 2.65168 13.6036 2.69158 13.4266 2.8246L4.47693 8.77023L0.608863 7.49332C0.179077 7.3603 -0.0231747 7.16078 0.00210679 6.89476C0.0273883 6.62874 0.292844 6.40261 0.798474 6.2164L15.8537 0.0712563C16.2328 -0.0617555 16.5361 -0.00855075 16.7638 0.230871C16.9912 0.44369 17.0544 0.829424 16.9534 1.38807Z" fill="#232323"/>
</svg>
